# xmcd
#
# Track frame offsets:
#	150
#	21517
#	33997
#	55965
#	69345
#	86545
#	102435
#	119457
#	138105
#	160677
#	174372
#	188392
#	207402
#	220175
#	237427
#	252530
#
# Disc length: 3663 seconds
#
# Revision: 0
# Processed by: cddbd v1.5.2PL0 Copyright (c) Steve Scherf et al.
# Submitted via: audiograbber 1.83.01
#
DISCID=dc0e4d10
DTITLE=Julio Iglesias - Begin The Beguine
DYEAR=1990
DGENRE=Easy Listening
TTITLE0=Begin The Beguine (Volver A Empezar)
TTITLE1=Quiereme (Based on the Polovtsian Dances from 'Prince Igor')
TTITLE2=Me Olvide De Vivir (I Forgot How To Live)
TTITLE3=Por Un Poco De Tu Amor (For A Little Of Your Love)
TTITLE4=Grande, Grande, Grande (Never, Never, Never)
TTITLE5=Como Tú (Someone Like You)
TTITLE6=Guantanamera
TTITLE7=Quiereme Mucho (Love Me A Lot)
TTITLE8=Hey
TTITLE9=Un Dia Tu, Un Dia Yo (One Day You ... One Day Me)
TTITLE10=Soy Un Truhan, Soy Un Señor (I'm A Rogue, I'm A Gentleman)
TTITLE11=Candilejas (Limelight)
TTITLE12=El Amor (La Tendresse)
TTITLE13=33 Años (33 Years)
TTITLE14=Isla En El Sol (Island In The Sun)
TTITLE15=Preguntale (Ask Him)
EXTD=ID3G: 116
EXTT0=
EXTT1=
EXTT2=
EXTT3=
EXTT4=
EXTT5=
EXTT6=
EXTT7=
EXTT8=
EXTT9=
EXTT10=
EXTT11=
EXTT12=
EXTT13=
EXTT14=
EXTT15=
PLAYORDER=
